<svg id="visual" viewBox="0 0 900 600" width="900" height="600" xmlns="http://www.w3.org/2000/svg" xmlns:xlink="http://www.w3.org/1999/xlink" version="1.1"><path d="M0 460L21.5 463.3C43 466.7 86 473.3 128.8 469C171.7 464.7 214.3 449.3 257.2 454.7C300 460 343 486 385.8 490.3C428.7 494.7 471.3 477.3 514.2 472.8C557 468.3 600 476.7 642.8 486.3C685.7 496 728.3 507 771.2 498.7C814 490.3 857 462.7 878.5 448.8L900 435L900 601L878.5 601C857 601 814 601 771.2 601C728.3 601 685.7 601 642.8 601C600 601 557 601 514.2 601C471.3 601 428.7 601 385.8 601C343 601 300 601 257.2 601C214.3 601 171.7 601 128.8 601C86 601 43 601 21.5 601L0 601Z" fill="#f5f5f5" stroke-linecap="round" stroke-linejoin="miter"></path></svg>